<svg xmlns="http://www.w3.org/2000/svg" viewBox="0 0 32 32">
  <defs>
    <linearGradient id="sky" x1="0" y1="0" x2="0" y2="1">
      <stop offset="0%" stop-color="#7a9472"/>
      <stop offset="100%" stop-color="#5a7256"/>
    </linearGradient>
    <radialGradient id="sun" cx="0.5" cy="0.5" r="0.5">
      <stop offset="0%" stop-color="#fff5d0"/>
      <stop offset="60%" stop-color="#f5e6a8"/>
      <stop offset="100%" stop-color="#f5e6a8" stop-opacity="0"/>
    </radialGradient>
    <clipPath id="clip"><rect width="32" height="32" rx="7"/></clipPath>
  </defs>
  <g clip-path="url(#clip)">
    <rect width="32" height="32" fill="url(#sky)"/>
    <circle cx="22.9" cy="11.7" r="9.6" fill="url(#sun)"/>
    <circle cx="22.9" cy="11.7" r="2.9" fill="#f5e6a8"/>
    <path d="M 0 22.4 Q 10.7 17.1, 20.3 20.3 Q 26.7 22.4, 32 20.3 L 32 32 L 0 32 Z" fill="#3f5b40" opacity="0.6"/>
    <path d="M 0 25.1 Q 8 20.3, 17.1 22.4 Q 25.6 24.5, 32 22.4 L 32 32 L 0 32 Z" fill="#2d4530" opacity="0.85"/>
    <path d="M 3.2 21.9 Q 16 17.6, 28.8 21.9" fill="none" stroke="#f5f1e8" stroke-width="0.5" stroke-linecap="round" opacity="0.6"/>
    <circle cx="9.6" cy="24" r="0.7" fill="#f5f1e8"/>
    <circle cx="11.7" cy="23.6" r="0.4" fill="#f5f1e8" opacity="0.5"/>
    <circle cx="13.9" cy="23.3" r="0.4" fill="#f5f1e8" opacity="0.4"/>
    <circle cx="16" cy="22.9" r="0.4" fill="#f5f1e8" opacity="0.3"/>
  </g>
</svg>
